<svg xmlns="http://www.w3.org/2000/svg" fill="none" viewBox="0 0 725 297"><path fill="#002E25" d="M468 37.035h209v192H468z"/><path fill="#008060" fill-rule="evenodd" d="M571.707 35.494v6.09c0 18.03-14.617 32.647-32.648 32.647-18.031 0-32.648-14.617-32.648-32.648v-6.089h65.296z" clip-rule="evenodd"/><path fill="#3FB484" fill-rule="evenodd" d="M637.015 35.494v6.09c0 18.03-14.617 32.647-32.648 32.647-18.031 0-32.649-14.617-32.649-32.648v-6.089h65.297z" clip-rule="evenodd"/><path fill="#008060" d="M676.49 13.985h-49.754l9.907 21.791h65.722L676.49 13.985z"/><path fill="#3FB484" d="M626.933 13.985h-55.318v21.791h65.375l-10.057-21.791zm-159.573 0h50.417l-9.907 21.792h-65.723l25.213-21.792z"/><path fill="#008060" d="M517.383 13.985h54.232v21.791h-64.093l9.861-21.791z"/><path fill="#3FB484" fill-rule="evenodd" d="M507.498 35.494v6.09c0 18.03-14.617 32.647-32.648 32.647-18.031 0-32.648-14.617-32.648-32.648v-6.089h65.296z" clip-rule="evenodd"/><path fill="#008060" fill-rule="evenodd" d="M702.366 35.494v6.09c0 18.03-14.617 32.647-32.648 32.647-18.031 0-32.648-14.617-32.648-32.648v-6.089h65.296z" clip-rule="evenodd"/><path fill="#008060" d="M554.036 94.414h-66.395v134.62h66.395zm103.28 0h-84.838v67.31h84.838zM677 0H468v14h209z"/><path fill="#00996E" fill-rule="evenodd" d="M95.11 17.576a3.541 3.541 0 013.542-3.54h230.835a3.54 3.54 0 013.541 3.54V165.51a3.541 3.541 0 01-3.541 3.542h-22.298a26.7 26.7 0 00.005-.566c0-17.719-14.363-32.082-32.082-32.082-17.718 0-32.082 14.363-32.082 32.082 0 .189.002.377.005.566H98.652c-.05 0-.1-.001-.15-.004a10.63 10.63 0 01-4.742 3.167 32.42 32.42 0 00.215-3.734c0-17.718-14.364-32.082-32.082-32.082-17.719 0-32.082 14.364-32.082 32.082 0 1.445.095 2.867.28 4.26H13.747c-5.867 0-10.623-4.756-10.623-10.623v-54.556c0-2.161.659-4.271 1.89-6.048l40.504-58.488a10.623 10.623 0 018.734-4.575h36.197c1.673 0 3.255.387 4.662 1.075v-21.95z" clip-rule="evenodd"/><path fill="#008060" d="M50.05 46.706a5.312 5.312 0 014.37-2.291h30.267A5.312 5.312 0 0190 49.727v48.998a5.312 5.312 0 01-5.312 5.311H14.793a2.3 2.3 0 01-1.893-3.61l37.15-53.72z"/><circle cx="274.824" cy="168.483" r="25.552" fill="#008060"/><path fill="#008060" fill-rule="evenodd" d="M92.67 177.568a32.092 32.092 0 001.305-9.087c0-3.051-.426-6.003-1.222-8.8H244.25a32.105 32.105 0 00-1.222 8.8c0 3.156.456 6.206 1.305 9.087H92.67zm-61.554 0H3.187A3.187 3.187 0 010 174.381v-11.513a3.187 3.187 0 013.187-3.187h27.846a32.113 32.113 0 00-1.222 8.8c0 3.156.456 6.206 1.305 9.087zm276.076-9.087c0 3.156-.456 6.206-1.305 9.087h27.928a3.187 3.187 0 003.187-3.187v-11.513a3.187 3.187 0 00-3.187-3.187H305.97a32.105 32.105 0 011.222 8.8z" clip-rule="evenodd"/><circle cx="61.609" cy="168.483" r="25.552" fill="#008060"/><path fill="#002E25" d="M69 187.035h56v59H69z"/><path fill="#008060" fill-rule="evenodd" d="M90.549 187.352h13.193v16.191l-1.633-1.459-1.628 1.454-1.628-1.454-1.65 1.473h-.03l-1.649-1.473-1.649 1.473h-.027l-1.649-1.473-1.648 1.473h-.002v-16.205z" clip-rule="evenodd"/><path fill="#3FB484" d="M115.044 170.035h72.57v75.572h-72.57z"/><path fill="#008060" fill-rule="evenodd" d="M144.998 170.179h12.853v15.773l-1.591-1.422-1.586 1.417-1.586-1.417-1.607 1.435h-.029l-1.607-1.435-1.606 1.435h-.028l-1.607-1.435-1.606 1.434v-15.785z" clip-rule="evenodd"/><path fill="#00996E" d="M616.185 143.24l2.38-.756 21.035 66.235-2.38.756z"/><path fill="#00996E" d="M621.319 158.417l1.825.89-22.236 45.611-1.825-.89z"/><path fill="#00996E" d="M639.152 207.865l-.248 2.015-39.111-4.807.247-2.015zm39.144-36.481l3.026-.961-.444-1.4-3.026.962z"/><path fill="#3FB484" d="M605.06 141.658c-1.371 1.447.882 2.071 2.181 2.202.623 0 1.454.264 1.791.552 1.433 1.321 2.311 1.285 2.571 1.101.804-.131 3.162-.317 6.153-1.26 2.991-.944 6.699-.708 8.334-.393 2.129.367 6.123.676 5.063-1.023-1.324-2.123-5.608-2.437-7.555-2.123-1.947.315-11.061.944-14.566.472-2.804-.377-3.817.157-3.972.472z"/><path fill="#00996E" d="M675.823 158.096v2.498h-53.549v-2.498zm1.192 5.308l1.866 1.66-40.066 45.026-1.866-1.66z"/><circle cx="692.605" cy="203.449" r="3.044" fill="#00996E"/><path fill="#00996E" fill-rule="evenodd" d="M671.92 147.502a1.172 1.172 0 00-.237 2.22l6.422 20.22 2.38-.756-6.149-19.365h8.512v-.001l.012.001h.023a3.981 3.981 0 010 7.961v.018a1.094 1.094 0 00-1.284 1.076 1.092 1.092 0 001.284 1.076v.015a6.245 6.245 0 00-.035-12.487v-.001H671.92v.023z" clip-rule="evenodd"/><path fill="#3FB484" fill-rule="evenodd" d="M599.793 234.905c17.417 0 31.536-14.119 31.536-31.536 0-17.416-14.119-31.536-31.536-31.536s-31.536 14.12-31.536 31.536c0 17.417 14.119 31.536 31.536 31.536zm0-3.433c15.52 0 28.101-12.582 28.101-28.102s-12.581-28.101-28.101-28.101-28.102 12.581-28.102 28.101 12.582 28.102 28.102 28.102zm93.671 3.433c17.417 0 31.536-14.119 31.536-31.536 0-17.416-14.119-31.536-31.536-31.536s-31.536 14.12-31.536 31.536c0 17.417 14.119 31.536 31.536 31.536zm0-3.433c15.52 0 28.101-12.582 28.101-28.102s-12.581-28.101-28.101-28.101-28.101 12.581-28.101 28.101 12.581 28.102 28.101 28.102z" clip-rule="evenodd"/><path fill="#00996E" fill-rule="evenodd" d="M678.814 171.219l8.581 26.426-.003.001.061.176.043.132.004.001c1.246 3.472 3.27 5.598 5.226 5.111.137-.034.271-.08.401-.138-1.406-.439-2.751-2.098-3.713-4.498l-8.772-27.791-1.828.58z" clip-rule="evenodd"/><circle cx="599.871" cy="203.449" r="3.044" fill="#00996E"/><path fill="#00996E" fill-rule="evenodd" d="M638.12 218.514a9.133 9.133 0 100-18.266 9.133 9.133 0 000 18.266zm0-2.029a7.104 7.104 0 10-.001-14.207 7.104 7.104 0 00.001 14.207z" clip-rule="evenodd"/><path fill="#3FB484" fill-rule="evenodd" d="M639.367 211.101a2.732 2.732 0 11-.012-4.697c1.818.753 4.665 1.382 7.944 1.673 3.497.311 5.565.08 6.738-.465a1.483 1.483 0 11-.004 2.284c-1.173-.545-3.241-.774-6.734-.464-3.272.291-6.114.918-7.932 1.669zm14.911.23h-7.296l7.296-.021v.021zm0-5.132v-.019h-6.732l6.732.019z" clip-rule="evenodd"/><path fill="#3FB484" d="M650.375 207.429h7.65v2.342h-7.65z"/><path fill="#D6D4CE" d="M161 277.976h414.803v13.221A5.804 5.804 0 01570 297H166.803a5.803 5.803 0 01-5.803-5.803v-13.221z"/><path fill="#F0EFEC" d="M555 277.976H180.998V42.803A5.803 5.803 0 01186.801 37h362.396A5.803 5.803 0 01555 42.803v235.173z"/><path fill="#BEBBB4" d="M322 277.976h91.801v.538a5.804 5.804 0 01-5.803 5.803h-80.195a5.803 5.803 0 01-5.803-5.803v-.538z"/><rect width="340.569" height="204.08" x="198" y="55.463" fill="#E7E5E0" rx="2.901"/><path fill="#D6D4CE" d="M152 277.976h414.803v13.221A5.804 5.804 0 01561 297H157.803a5.803 5.803 0 01-5.803-5.803v-13.221z"/><path fill="#F0EFEC" d="M546 277.976H171.998V42.803A5.803 5.803 0 01177.801 37h362.396A5.803 5.803 0 01546 42.803v235.173z"/><path fill="#BEBBB4" d="M313 277.976h91.801v.538a5.804 5.804 0 01-5.803 5.803h-80.195a5.803 5.803 0 01-5.803-5.803v-.538z"/><rect width="340.569" height="204.08" x="189" y="55.463" fill="#E7E5E0" rx="2.901"/><circle cx="506" cy="152" r="78" fill="#FFCB67"/><rect width="127" height="30" x="208" y="92" fill="#fff" rx="4"/><rect width="65.203" height="30" x="340" y="92" fill="#008060" rx="4"/><path fill="#fff" d="M208.001 138h94.618v14.336h-94.618z"/><circle cx="293.451" cy="145.168" r="3.503" stroke="#008060" stroke-width=".448"/><path stroke="#008060" stroke-linecap="round" stroke-linejoin="round" stroke-width=".538" d="M294.024 146.315l.574-.574.573-.573-1.147-1.147m-2.294 1.147h3.441"/><rect width="59.853" height="3.942" x="212.302" y="143.376" fill="#D6D4CE" rx="1.971"/><path fill="#fff" d="M310.503 138h94.618v14.336h-94.618z"/><circle cx="395.953" cy="145.168" r="3.503" stroke="#008060" stroke-width=".448"/><path stroke="#008060" stroke-linecap="round" stroke-linejoin="round" stroke-width=".538" d="M396.526 146.315l.573-.574.574-.573-1.147-1.147m-2.294 1.147h3.441"/><rect width="59.853" height="3.942" x="314.803" y="143.375" fill="#D6D4CE" rx="1.971"/><path fill="#fff" d="M208 160h94.618v14.336H208z"/><circle cx="293.45" cy="167.168" r="3.503" stroke="#008060" stroke-width=".448"/><path stroke="#008060" stroke-linecap="round" stroke-linejoin="round" stroke-width=".538" d="M294.023 168.315l.573-.574.574-.573-1.147-1.147m-2.294 1.147h3.441"/><rect width="59.853" height="3.942" x="212.3" y="165.376" fill="#D6D4CE" rx="1.971"/><path fill="#fff" d="M310.502 160h94.618v14.336h-94.618z"/><circle cx="395.951" cy="167.168" r="3.503" stroke="#008060" stroke-width=".448"/><path stroke="#008060" stroke-linecap="round" stroke-linejoin="round" stroke-width=".538" d="M396.525 168.315l.573-.574.574-.573-1.147-1.147m-2.294 1.147h3.441"/><rect width="59.853" height="3.942" x="314.802" y="165.375" fill="#D6D4CE" rx="1.971"/><path fill="#fff" d="M208.001 182h94.618v14.336h-94.618z"/><circle cx="293.451" cy="189.168" r="3.503" stroke="#008060" stroke-width=".448"/><path stroke="#008060" stroke-linecap="round" stroke-linejoin="round" stroke-width=".538" d="M294.024 190.315l.574-.574.573-.573-1.147-1.147m-2.294 1.147h3.441"/><rect width="59.853" height="3.942" x="212.302" y="187.376" fill="#D6D4CE" rx="1.971"/><path fill="#fff" d="M310.503 182h94.618v14.336h-94.618z"/><circle cx="395.953" cy="189.168" r="3.503" stroke="#008060" stroke-width=".448"/><path stroke="#008060" stroke-linecap="round" stroke-linejoin="round" stroke-width=".538" d="M396.526 190.315l.573-.574.574-.573-1.147-1.147m-2.294 1.147h3.441"/><rect width="59.853" height="3.942" x="314.803" y="187.375" fill="#D6D4CE" rx="1.971"/><path fill="#fff" d="M208 204h94.618v14.336H208z"/><circle cx="293.45" cy="211.168" r="3.503" stroke="#008060" stroke-width=".448"/><path stroke="#008060" stroke-linecap="round" stroke-linejoin="round" stroke-width=".538" d="M294.023 212.315l.573-.574.574-.573-1.147-1.147m-2.294 1.147h3.441"/><rect width="59.853" height="3.942" x="212.3" y="209.376" fill="#D6D4CE" rx="1.971"/><path fill="#fff" d="M310.502 204h94.618v14.336h-94.618z"/><circle cx="395.951" cy="211.168" r="3.503" stroke="#008060" stroke-width=".448"/><path stroke="#008060" stroke-linecap="round" stroke-linejoin="round" stroke-width=".538" d="M396.525 212.315l.573-.574.574-.573-1.147-1.147m-2.294 1.147h3.441"/><rect width="59.853" height="3.942" x="314.802" y="209.375" fill="#D6D4CE" rx="1.971"/><path fill="#004C3F" fill-rule="evenodd" d="M533.566 174.59a3.003 3.003 0 00-1.664 1.43l-2.85 5.386-3.216-14.736 13.068 6.056-5.338 1.864zm14.582-4.192l-25.27-11.714a3.001 3.001 0 00-4.192 3.364l6.254 28.652a2.997 2.997 0 002.932 2.358c1.1 0 2.126-.604 2.652-1.596l6.132-11.594 11.218-3.914a3 3 0 00.274-5.556zm-73.016-9.846c4.188 2.456 10.486 5.34 18.73 7.022 1.832 7.974 4.662 14.192 6.976 18.356a34.297 34.297 0 01-4.132-1.354c-10.65-4.274-18.718-13.268-21.574-24.024zm25.33-42.474c-2.426 4.124-5.272 10.318-6.972 18.412-8.088 1.698-14.28 4.544-18.402 6.968 3.134-12.446 12.928-22.246 25.374-25.38zm41.01 21.49a34.035 34.035 0 011.426 4.252c-4.166-2.31-10.378-5.134-18.342-6.96-1.68-8.246-4.564-14.514-7.014-18.704 10.652 2.86 19.562 10.864 23.93 21.412zm-33.48-4.576c-2.854 0-5.54.178-8.094.464 2.506-9.89 6.77-16.184 8.514-18.454.398-.006.79.016 1.186.024 1.774 2.306 6.066 8.65 8.538 18.682a74.06 74.06 0 00-10.144-.716zm-15.284 26.162c-10.02-2.488-16.392-6.804-18.69-8.566-.004-.23-.026-.454-.026-.682 0-.176.024-.344.028-.518 2.27-1.756 8.528-6.014 18.436-8.506a72.652 72.652 0 00-.464 8.11c0 3.598.278 6.974.716 10.162zm21.308 25.458a33.57 33.57 0 01-5.504.36c-1.686-2.458-5.63-8.904-8.188-18.404 2.432.258 4.97.424 7.668.424.592 0 1.164-.022 1.736-.046l.69-.026a3.001 3.001 0 002.9-3.098c-.054-1.654-1.472-2.968-3.096-2.898l-.742.028c-.49.018-.98.04-1.488.04-3.23 0-6.226-.25-9.036-.644a67.664 67.664 0 01-.964-11.356c0-3.34.268-6.432.688-9.32 2.884-.416 5.97-.68 9.312-.68 4.064 0 7.852.374 11.352.972.33 2.374.542 4.902.6 7.582a3.002 3.002 0 002.998 2.936c.024 0 .046 0 .068-.002a2.997 2.997 0 002.934-3.062 71.57 71.57 0 00-.414-6.088c9.512 2.564 15.996 6.518 18.454 8.198a33.713 33.713 0 01-.548 6.52 2.974 2.974 0 001.682 3.23l.004.002c1.766.818 3.864-.226 4.214-2.14.424-2.32.656-4.706.656-7.148 0-.53-.022-1.056-.042-1.58.054-.384.034-.77-.058-1.142-1.354-20.532-17.88-36.978-38.45-38.198a2.982 2.982 0 00-.626-.032 40.963 40.963 0 00-3.642.002c-.22-.014-.426 0-.644.034-20.49 1.21-37.246 17.966-38.456 38.458-.034.214-.048.42-.034.638a41.873 41.873 0 00-.002 3.648c-.012.208 0 .406.032.614 1.214 20.566 17.656 37.094 38.182 38.456.244.062.49.102.742.102.092 0 .18-.036.272-.044a44.77 44.77 0 001.726.044c2.008 0 3.976-.158 5.902-.446a3.012 3.012 0 002.492-3.622 2.984 2.984 0 00-3.37-2.312z" clip-rule="evenodd"/></svg>