<svg xmlns="http://www.w3.org/2000/svg" xmlns:xlink="http://www.w3.org/1999/xlink" width="489" height="210" viewBox="0 0 489 210">
    <defs>
        <path id="a" d="M137.665 16.553c.121-.486.317-.491.44 0l.687 2.755h-1.815l.688-2.755z"/>
        <mask id="f" width="1.815" height="3.122" x="0" y="0" fill="#fff">
            <use xlink:href="#a"/>
        </mask>
        <path id="b" d="M145.943 17.61c0-1.257.607-3.102 1.288-4.138 0 0 .252-.12.467-.983.215-.863 1.416 1.032 1.416 1.032.754 1 1.366 2.831 1.366 4.09v-.346a2.267 2.267 0 0 1-2.269 2.278 2.273 2.273 0 0 1-2.268-2.278v.345z"/>
        <mask id="g" width="4.537" height="7.279" x="0" y="0" fill="#fff">
            <use xlink:href="#b"/>
        </mask>
        <rect id="c" width="16.333" height="10.907" x="428.296" y="14.58" rx="3.6"/>
        <mask id="h" width="16.333" height="10.907" x="0" y="0" fill="#fff">
            <use xlink:href="#c"/>
        </mask>
        <linearGradient id="k" x1="50%" x2="50%" y1="3.272%" y2="93.212%">
            <stop offset="0%" stop-color="#FFF"/>
            <stop offset="100%" stop-color="#FFF"/>
        </linearGradient>
        <rect id="j" width="193.278" height="161.79" rx="7.2"/>
        <filter id="i" width="200%" height="200%" x="-50%" y="-50%" filterUnits="objectBoundingBox">
            <feOffset in="SourceAlpha" result="shadowOffsetOuter1"/>
            <feGaussianBlur in="shadowOffsetOuter1" result="shadowBlurOuter1" stdDeviation=".5"/>
            <feColorMatrix in="shadowBlurOuter1" result="shadowMatrixOuter1" values="0 0 0 0 0 0 0 0 0 0 0 0 0 0 0 0 0 0 0.06 0"/>
            <feOffset dy="2" in="SourceAlpha" result="shadowOffsetOuter2"/>
            <feGaussianBlur in="shadowOffsetOuter2" result="shadowBlurOuter2" stdDeviation="2"/>
            <feColorMatrix in="shadowBlurOuter2" result="shadowMatrixOuter2" values="0 0 0 0 0 0 0 0 0 0 0 0 0 0 0 0 0 0 0.24 0"/>
            <feMerge>
                <feMergeNode in="shadowMatrixOuter1"/>
                <feMergeNode in="shadowMatrixOuter2"/>
            </feMerge>
        </filter>
        <filter id="l" width="200%" height="200%" x="-50%" y="-50%" filterUnits="objectBoundingBox">
            <feGaussianBlur in="SourceAlpha" result="shadowBlurInner1" stdDeviation="1"/>
            <feOffset in="shadowBlurInner1" result="shadowOffsetInner1"/>
            <feComposite in="shadowOffsetInner1" in2="SourceAlpha" k2="-1" k3="1" operator="arithmetic" result="shadowInnerInner1"/>
            <feColorMatrix in="shadowInnerInner1" result="shadowMatrixInner1" values="0 0 0 0 0 0 0 0 0 0 0 0 0 0 0 0 0 0 0.12 0"/>
            <feGaussianBlur in="SourceAlpha" result="shadowBlurInner2" stdDeviation="2.5"/>
            <feOffset in="shadowBlurInner2" result="shadowOffsetInner2"/>
            <feComposite in="shadowOffsetInner2" in2="SourceAlpha" k2="-1" k3="1" operator="arithmetic" result="shadowInnerInner2"/>
            <feColorMatrix in="shadowInnerInner2" result="shadowMatrixInner2" values="0 0 0 0 0 0 0 0 0 0 0 0 0 0 0 0 0 0 0.12 0"/>
            <feMerge>
                <feMergeNode in="shadowMatrixInner1"/>
                <feMergeNode in="shadowMatrixInner2"/>
            </feMerge>
        </filter>
        <path id="d" d="M10.889 11.801c0-.494.4-.894.904-.894H228.67a.9.9 0 0 1 .904.894v138.188c0 .493-.4.893-.904.893H11.793a.9.9 0 0 1-.904-.893V11.8z"/>
        <mask id="m" width="218.685" height="139.975" x="0" y="0" fill="#fff">
            <use xlink:href="#d"/>
        </mask>
        <path id="e" d="M.078 15.69S4.363.577 6.43.577s6.352 15.115 6.352 15.115v83.97a6.356 6.356 0 0 1-6.352 6.351 6.357 6.357 0 0 1-6.352-6.351v-83.97z"/>
        <mask id="n" width="12.704" height="105.436" x="0" y="0" fill="#fff">
            <use xlink:href="#e"/>
        </mask>
    </defs>
    <g fill="none" fill-rule="evenodd">
        <path d="M-18 0h530v210H-18z"/>
        <g transform="translate(2 71.769)">
            <path stroke="#B3E1FF" stroke-linecap="round" stroke-width="3.6" d="M0 84.568h9.981M17.24 84.568h393.816M421.944 84.568h9.075M445.537 84.568h18.148"/>
            <path stroke="#B3E1FF" stroke-linecap="round" stroke-linejoin="round" stroke-width="1.8" d="M150.66 29.375l8.231 30.693-6.463-31.101-2.455-7.885zM157.145 10.369l.71 38.758.198-38.753-.52-9.422z"/>
            <path stroke="#B3E1FF" stroke-linejoin="bevel" stroke-width="2.7" d="M158.204 53.935l-18.821-34.258 18.821 34.258z"/>
            <use fill="#22B4FB" stroke="#B3E1FF" stroke-width="1.8" mask="url(#f)" transform="rotate(-28 137.885 17.747)" xlink:href="#a"/>
            <use fill="#B4E2FF" stroke="#B3E1FF" stroke-width="1.8" mask="url(#g)" transform="rotate(-13 148.211 15.903)" xlink:href="#b"/>
            <use fill="#FFF" stroke="#B3E1FF" stroke-width="7.2" mask="url(#h)" xlink:href="#c"/>
            <path fill="#FFF" stroke="#B3E1FF" stroke-linecap="round" stroke-width="3.6" d="M419.39 70.09c11.132 9.341 27.743 7.874 37.1-3.278 9.358-11.152 7.919-27.765-3.214-37.107-11.133-9.342-27.744-7.874-37.102 3.278"/>
            <path fill="#FFF" stroke="#B3E1FF" stroke-linecap="round" stroke-width="1.8" d="M421.01 58.021c4.706 8.85 15.706 12.203 24.571 7.49 8.865-4.714 12.236-15.709 7.53-24.559"/>
            <path stroke="#B3E1FF" stroke-linecap="round" stroke-width="3.6" d="M453.704 70.934l4.537 7.271M427.389 35.485l4.537 7.272M420.13 70.934l-4.537 7.271"/>
            <path fill="#FFF" stroke="#B3E1FF" stroke-linecap="round" stroke-width="3.6" d="M169.685 38.212h-29.709c-1.202 0 2.514 0 4.128 5.529 1.613 5.529.715 21.419 3.241 26.691 2.527 5.273 7.368 5.955 7.368 5.955"/>
            <path stroke="#B3E1FF" stroke-width="3.6" d="M145.185 45.938h20.87"/>
            <path stroke="#B3E1FF" stroke-linecap="round" stroke-width="3.6" d="M124.315 42.757h-97.07c-5.024 0-9.097 4.068-9.097 9.09 0 5.019 4.065 9.088 9.098 9.088h97.069"/>
            <path stroke="#B3E1FF" stroke-linecap="round" stroke-width=".9" d="M32.667 48.21h88.018M62.611 51.846h49M39.019 51.846h7.259M33.574 55.482h33.574M75.315 55.482h45.37"/>
            <path stroke="#B3E1FF" stroke-linecap="round" stroke-width="3.6" d="M124.315 66.389h-97.07c-5.024 0-9.097 4.068-9.097 9.09 0 5.02 4.065 9.089 9.098 9.089h97.069"/>
            <path stroke="#B3E1FF" stroke-linecap="round" stroke-width=".9" d="M32.667 71.843h88.018M62.611 75.478h49M39.019 75.478h7.259M33.574 79.114h33.574M75.315 79.114h45.37"/>
            <path fill="#FFF" d="M137.926 34.576h23.593v1.818h-23.593z"/>
        </g>
        <g transform="translate(170.778 18.179)">
            <use fill="#000" filter="url(#i)" xlink:href="#j"/>
            <use fill="url(#k)" xlink:href="#j"/>
            <use fill="#000" filter="url(#l)" xlink:href="#j"/>
            <use stroke="#DDD" stroke-width="1.8" mask="url(#m)" xlink:href="#d"/>
        </g>
        <g transform="translate(198)">
            <rect width="22.685" height="22.723" y="47.264" fill="#E7F6FF" rx="3.6"/>
            <rect width="22.685" height="22.723" x="28.13" y="47.264" fill="#E7F6FF" rx="3.6"/>
            <rect width="22.685" height="22.723" x="56.259" y="47.264" fill="#E7F6FF" rx="3.6"/>
            <rect width="22.685" height="22.723" x="84.389" y="47.264" fill="#E7F6FF" rx="3.6"/>
            <rect width="22.685" height="22.723" x="113.426" y="47.264" fill="#E7F6FF" rx="3.6"/>
            <rect width="22.685" height="22.723" x="141.556" y="47.264" fill="#E7F6FF" rx="3.6"/>
            <rect width="22.685" height="22.723" y="75.441" fill="#E7F6FF" rx="3.6"/>
            <rect width="22.685" height="22.723" x="28.13" y="75.441" fill="#E7F6FF" rx="3.6"/>
            <rect width="22.685" height="22.723" x="56.259" y="75.441" fill="#E7F6FF" rx="3.6"/>
            <rect width="22.685" height="22.723" x="141.556" y="75.441" fill="#E7F6FF" rx="3.6"/>
            <rect width="22.685" height="22.723" x="56.259" y="103.618" fill="#E7F6FF" rx="3.6"/>
            <rect width="22.685" height="22.723" x="84.389" y="103.618" fill="#E7F6FF" rx="3.6"/>
            <rect width="22.685" height="22.723" x="113.426" y="103.618" fill="#E7F6FF" rx="3.6"/>
            <rect width="22.685" height="22.723" x="141.556" y="103.618" fill="#E7F6FF" rx="3.6"/>
            <rect width="22.685" height="22.723" y="131.795" fill="#E7F6FF" rx="3.6"/>
            <rect width="22.685" height="22.723" x="28.13" y="131.795" fill="#E7F6FF" rx="3.6"/>
            <rect width="22.685" height="22.723" x="56.259" y="131.795" fill="#E7F6FF" rx="3.6"/>
            <rect width="22.685" height="22.723" x="84.389" y="131.795" fill="#E7F6FF" rx="3.6"/>
            <rect width="22.685" height="22.723" x="113.426" y="131.795" fill="#E7F6FF" rx="3.6"/>
            <rect width="22.685" height="22.723" x="141.556" y="131.795" fill="#E7F6FF" rx="3.6"/>
            <rect width="22.685" height="22.723" x="84.389" y="75.441" fill="#3FD59C" rx="3.6"/>
            <rect width="22.685" height="22.723" x="113.426" y="75.441" fill="#FFE174" rx="3.6"/>
            <rect width="22.685" height="22.723" y="103.618" fill="#FFE174" rx="3.6"/>
            <rect width="22.685" height="22.723" x="28.13" y="103.618" fill="#FFE174" rx="3.6"/>
            <path fill="#8BD9FF" d="M107.981 0h88.092c5.472 0 9.908 4.424 9.908 9.904v174.609h7.26s.307 12.723 0 17.27c-.8 3.71-2.315 6.034-4.537 7.271-2.685.43-81.791.06-81.791.06-7.95-.033-14.394-6.506-14.394-14.465V18.179h-9.982s-.427-4.463.907-9.999C104.136 2.6 107.317 0 107.981 0z"/>
            <path fill="#04A5F4" d="M209.611 184.513h7.26s3.559 4.72 2.722 13.634c-1.181 9.49-5.009 9.69-7.26 10.907-2.68.468-87.11 0-87.11 0s6.175-2.62 7.258-10.907c.443-7.709-3.63-13.634-3.63-13.634h80.76zM107.615 0c1.739 0 4.303 2.01 4.634 8.016.331 6.006.264 10.163.264 10.163h-9.699s-.788-4.883.295-10.732C104.104 2.076 105.876 0 107.615 0z"/>
            <rect width="36.296" height="2.727" x="124.315" y="39.084" fill="#FFF" rx="1.363"/>
            <rect width="36.296" height="2.727" x="161.519" y="150.882" fill="#FFF" rx="1.363"/>
            <rect width="36.296" height="2.727" x="161.519" y="159.972" fill="#FFF" rx="1.363"/>
            <rect width="70.778" height="2.727" x="125.222" y="66.352" fill="#FFF" rx="1.363"/>
            <rect width="70.778" height="2.727" x="125.222" y="75.441" fill="#FFF" rx="1.363"/>
            <rect width="70.778" height="2.727" x="125.222" y="87.257" fill="#FFF" rx="1.363"/>
            <rect width="70.778" height="2.727" x="125.222" y="96.347" fill="#FFF" rx="1.363"/>
            <rect width="70.778" height="2.727" x="125.222" y="107.254" fill="#FFF" rx="1.363"/>
            <rect width="70.778" height="2.727" x="125.222" y="117.252" fill="#FFF" rx="1.363"/>
        </g>
        <g stroke="#B3E1FF" transform="rotate(-114 244.336 -55.102)">
            <use fill="#FFF" stroke-width="7.2" mask="url(#n)" xlink:href="#e"/>
            <path fill="#D8D8D8" stroke-width="3.6" d="M.866 18.027s2.722.91 5.444.91c2.723 0 5.445-.91 5.445-.91M.722 96.564s2.723.909 5.445.909c2.722 0 5.444-.909 5.444-.909M.91 91.673s2.722.909 5.444.909c2.723 0 5.445-.91 5.445-.91M4.332 5.65H7.525 4.332z"/>
        </g>
    </g>
</svg>
