<svg xmlns="http://www.w3.org/2000/svg" xmlns:xlink="http://www.w3.org/1999/xlink" width="530" height="172" viewBox="0 0 530 172">
    <defs>
        <path id="a" d="M125 10.997c0-.55.443-.997 1-.997h240a1 1 0 0 1 1 .997v145.006c0 .55-.443.997-1 .997H126a1 1 0 0 1-1-.997V10.997z"/>
        <mask id="l" width="242" height="147" x="0" y="0" fill="#fff">
            <use xlink:href="#a"/>
        </mask>
        <rect id="b" width="412" height="98" x="18" rx="4"/>
        <mask id="m" width="412" height="98" x="0" y="0" fill="#fff">
            <use xlink:href="#b"/>
        </mask>
        <rect id="c" width="11" height="71" x="452.861" y="73.728" rx="5.5"/>
        <mask id="n" width="11" height="71" x="0" y="0" fill="#fff">
            <use xlink:href="#c"/>
        </mask>
        <rect id="d" width="11" height="4" x="472.462" y="122.603" rx="2"/>
        <mask id="o" width="11" height="4" x="0" y="0" fill="#fff">
            <use xlink:href="#d"/>
        </mask>
        <rect id="e" width="11" height="4" x="434.351" y="92.664" rx="2"/>
        <mask id="p" width="11" height="4" x="0" y="0" fill="#fff">
            <use xlink:href="#e"/>
        </mask>
        <rect id="f" width="42" height="33" x="400.931" y="63.193" rx="8"/>
        <mask id="q" width="42" height="33" x="0" y="0" fill="#fff">
            <use xlink:href="#f"/>
        </mask>
        <rect id="g" width="11" height="37" x="429.464" y="44.262" rx="5.5"/>
        <mask id="r" width="11" height="37" x="0" y="0" fill="#fff">
            <use xlink:href="#g"/>
        </mask>
        <rect id="h" width="11" height="37" x="402.464" y="79.262" rx="5.5"/>
        <mask id="s" width="11" height="37" x="0" y="0" fill="#fff">
            <use xlink:href="#h"/>
        </mask>
        <path id="i" d="M367 133.5c0-3.59 2.903-6.5 6.5-6.5h41c3.59 0 6.5 2.917 6.5 6.5v6.5h-54v-6.5z"/>
        <mask id="t" width="54" height="13" x="0" y="0" fill="#fff">
            <use xlink:href="#i"/>
        </mask>
        <path id="j" d="M370 124.5c0-3.59 2.905-6.5 6.498-6.5h34.004a6.504 6.504 0 0 1 6.498 6.5v6.5h-47v-6.5z"/>
        <mask id="u" width="47" height="13" x="0" y="0" fill="#fff">
            <use xlink:href="#j"/>
        </mask>
        <linearGradient id="x" x1="50%" x2="50%" y1="3.272%" y2="93.212%">
            <stop offset="0%" stop-color="#FFF"/>
            <stop offset="100%" stop-color="#FFF"/>
        </linearGradient>
        <rect id="w" width="262" height="170" x="23" rx="6.498"/>
        <filter id="v" width="200%" height="200%" x="-50%" y="-50%" filterUnits="objectBoundingBox">
            <feOffset in="SourceAlpha" result="shadowOffsetOuter1"/>
            <feGaussianBlur in="shadowOffsetOuter1" result="shadowBlurOuter1" stdDeviation=".5"/>
            <feColorMatrix in="shadowBlurOuter1" result="shadowMatrixOuter1" values="0 0 0 0 0 0 0 0 0 0 0 0 0 0 0 0 0 0 0.06 0"/>
            <feOffset dy="2" in="SourceAlpha" result="shadowOffsetOuter2"/>
            <feGaussianBlur in="shadowOffsetOuter2" result="shadowBlurOuter2" stdDeviation="2"/>
            <feColorMatrix in="shadowBlurOuter2" result="shadowMatrixOuter2" values="0 0 0 0 0 0 0 0 0 0 0 0 0 0 0 0 0 0 0.24 0"/>
            <feMerge>
                <feMergeNode in="shadowMatrixOuter1"/>
                <feMergeNode in="shadowMatrixOuter2"/>
            </feMerge>
        </filter>
        <filter id="y" width="200%" height="200%" x="-50%" y="-50%" filterUnits="objectBoundingBox">
            <feGaussianBlur in="SourceAlpha" result="shadowBlurInner1" stdDeviation="1"/>
            <feOffset in="shadowBlurInner1" result="shadowOffsetInner1"/>
            <feComposite in="shadowOffsetInner1" in2="SourceAlpha" k2="-1" k3="1" operator="arithmetic" result="shadowInnerInner1"/>
            <feColorMatrix in="shadowInnerInner1" result="shadowMatrixInner1" values="0 0 0 0 0 0 0 0 0 0 0 0 0 0 0 0 0 0 0.12 0"/>
            <feGaussianBlur in="SourceAlpha" result="shadowBlurInner2" stdDeviation="3"/>
            <feOffset in="shadowBlurInner2" result="shadowOffsetInner2"/>
            <feComposite in="shadowOffsetInner2" in2="SourceAlpha" k2="-1" k3="1" operator="arithmetic" result="shadowInnerInner2"/>
            <feColorMatrix in="shadowInnerInner2" result="shadowMatrixInner2" values="0 0 0 0 0 0 0 0 0 0 0 0 0 0 0 0 0 0 0.12 0"/>
            <feMerge>
                <feMergeNode in="shadowMatrixInner1"/>
                <feMergeNode in="shadowMatrixInner2"/>
            </feMerge>
        </filter>
        <path id="k" d="M33 10.997c0-.55.443-.997 1-.997h240a1 1 0 0 1 1 .997v145.006c0 .55-.443.997-1 .997H34a1 1 0 0 1-1-.997V10.997z"/>
        <mask id="z" width="242" height="147" x="0" y="0" fill="#fff">
            <use xlink:href="#k"/>
        </mask>
        <path id="B" d="M155 172v-8h155v8H155zm0 0H0v-8h155v8z"/>
        <filter id="A" width="200%" height="200%" x="-50%" y="-50%" filterUnits="objectBoundingBox">
            <feOffset dy="1" in="SourceAlpha" result="shadowOffsetOuter1"/>
            <feGaussianBlur in="shadowOffsetOuter1" result="shadowBlurOuter1" stdDeviation=".5"/>
            <feColorMatrix in="shadowBlurOuter1" result="shadowMatrixOuter1" values="0 0 0 0 0 0 0 0 0 0 0 0 0 0 0 0 0 0 0.12 0"/>
            <feOffset dy="2" in="SourceAlpha" result="shadowOffsetOuter2"/>
            <feGaussianBlur in="shadowOffsetOuter2" result="shadowBlurOuter2" stdDeviation="2"/>
            <feColorMatrix in="shadowBlurOuter2" result="shadowMatrixOuter2" values="0 0 0 0 0 0 0 0 0 0 0 0 0 0 0 0 0 0 0.24 0"/>
            <feMerge>
                <feMergeNode in="shadowMatrixOuter1"/>
                <feMergeNode in="shadowMatrixOuter2"/>
            </feMerge>
        </filter>
        <filter id="C" width="200%" height="200%" x="-50%" y="-50%" filterUnits="objectBoundingBox">
            <feGaussianBlur in="SourceAlpha" result="shadowBlurInner1" stdDeviation="3"/>
            <feOffset in="shadowBlurInner1" result="shadowOffsetInner1"/>
            <feComposite in="shadowOffsetInner1" in2="SourceAlpha" k2="-1" k3="1" operator="arithmetic" result="shadowInnerInner1"/>
            <feColorMatrix in="shadowInnerInner1" values="0 0 0 0 0 0 0 0 0 0 0 0 0 0 0 0 0 0 0.06 0"/>
        </filter>
        <path id="E" d="M122 72.621V0h16.01c4.965 0 8.99 4.032 8.99 8.991v76.137-.014c0-6.9-5.595-12.493-12.5-12.493H122z"/>
        <filter id="D" width="200%" height="200%" x="-50%" y="-50%" filterUnits="objectBoundingBox">
            <feOffset dy="2" in="SourceAlpha" result="shadowOffsetOuter1"/>
            <feGaussianBlur in="shadowOffsetOuter1" result="shadowBlurOuter1" stdDeviation=".5"/>
            <feColorMatrix in="shadowBlurOuter1" values="0 0 0 0 0.301159046 0 0 0 0 0.454638247 0 0 0 0 0.529947917 0 0 0 1 0"/>
        </filter>
    </defs>
    <g fill="none" fill-rule="evenodd">
        <path d="M0 0h530v172H0z"/>
        <g transform="translate(20)">
            <use stroke="#DDD" stroke-width="2" mask="url(#l)" xlink:href="#a"/>
            <g stroke="#B3E1FF" transform="translate(0 17)">
                <path stroke-linecap="round" stroke-width="4" d="M0 128.5h10M17 128.5h390"/>
                <use fill="#FFF" stroke-width="8" mask="url(#m)" xlink:href="#b"/>
                <path stroke-linecap="round" stroke-linejoin="round" stroke-width="5" d="M32 66.887l24.384-31.086 18.912 16.76L112.96 15l257.536 57L408 22.554"/>
                <path stroke-linecap="round" stroke-width="4" d="M418 129h15M443 128.5h18"/>
                <path fill="#FFF" stroke-width="3" d="M46.27 130.009c-.177.159-.27.323-.27.491 0 1.38 6.268 2.5 14 2.5s14-1.12 14-2.5c0-.17-.094-.334-.273-.494a2 2 0 0 0 .273-1.012v-2.988c0-1.12-.892-2.006-1.991-2.006H47.99A2.004 2.004 0 0 0 46 126.006v2.988c0 .372.098.718.27 1.015z"/>
                <ellipse cx="60" cy="124.5" fill="#FFF" stroke-width="3" rx="14" ry="2.5"/>
                <path fill="#FFF" stroke-width="3" d="M46.27 125.009c-.177.159-.27.323-.27.491 0 1.38 6.268 2.5 14 2.5s14-1.12 14-2.5c0-.17-.094-.334-.273-.494a2 2 0 0 0 .273-1.012v-2.988c0-1.12-.892-2.006-1.991-2.006H47.99A2.004 2.004 0 0 0 46 121.006v2.988c0 .372.098.718.27 1.015z"/>
                <ellipse cx="60" cy="119.5" fill="#FFF" stroke-width="3" rx="14" ry="2.5"/>
                <path fill="#FFF" stroke-width="3" d="M46.27 119.009c-.177.159-.27.323-.27.491 0 1.38 6.268 2.5 14 2.5s14-1.12 14-2.5c0-.17-.094-.334-.273-.494a2 2 0 0 0 .273-1.012v-2.988c0-1.12-.892-2.006-1.991-2.006H47.99A2.004 2.004 0 0 0 46 115.006v2.988c0 .372.098.718.27 1.015z"/>
                <ellipse cx="60" cy="113.5" fill="#FFF" stroke-width="3" rx="14" ry="2.5"/>
                <path fill="#FFF" stroke-width="3" d="M46.27 112.009c-.177.159-.27.323-.27.491 0 1.38 6.268 2.5 14 2.5s14-1.12 14-2.5c0-.17-.094-.334-.273-.494a2 2 0 0 0 .273-1.012v-2.988c0-1.12-.892-2.006-1.991-2.006H47.99A2.004 2.004 0 0 0 46 108.006v2.988c0 .372.098.718.27 1.015z"/>
                <ellipse cx="60" cy="106.5" fill="#FFF" stroke-width="3" rx="14" ry="2.5"/>
                <path fill="#FFF" stroke-width="3" d="M46.27 106.009c-.177.159-.27.323-.27.491 0 1.38 6.268 2.5 14 2.5s14-1.12 14-2.5c0-.17-.094-.334-.273-.494a2 2 0 0 0 .273-1.012v-2.988c0-1.12-.892-2.006-1.991-2.006H47.99A2.004 2.004 0 0 0 46 102.006v2.988c0 .372.098.718.27 1.015z"/>
                <ellipse cx="60" cy="100.5" fill="#FFF" stroke-width="3" rx="14" ry="2.5"/>
                <path fill="#FFF" stroke-width="3" d="M46.27 100.009c-.177.159-.27.323-.27.491 0 1.38 6.268 2.5 14 2.5s14-1.12 14-2.5c0-.17-.094-.334-.273-.494A2 2 0 0 0 74 98.994v-2.988c0-1.12-.892-2.006-1.991-2.006H47.99A2.004 2.004 0 0 0 46 96.006v2.988c0 .372.098.718.27 1.015z"/>
                <ellipse cx="60" cy="94.5" fill="#FFF" stroke-width="3" rx="14" ry="2.5"/>
                <path fill="#FFF" stroke-width="3" d="M46.27 93.009c-.177.159-.27.323-.27.491 0 1.38 6.268 2.5 14 2.5s14-1.12 14-2.5c0-.17-.094-.334-.273-.494A2 2 0 0 0 74 91.994v-2.988c0-1.12-.892-2.006-1.991-2.006H47.99A2.004 2.004 0 0 0 46 89.006v2.988c0 .372.098.718.27 1.015z"/>
                <ellipse cx="60" cy="87.5" fill="#FFF" stroke-width="3" rx="14" ry="2.5"/>
                <path fill="#FFF" stroke-width="3" d="M46.27 87.009c-.177.159-.27.323-.27.491 0 1.38 6.268 2.5 14 2.5s14-1.12 14-2.5c0-.17-.094-.334-.273-.494A2 2 0 0 0 74 85.994v-2.988c0-1.12-.892-2.006-1.991-2.006H47.99A2.004 2.004 0 0 0 46 83.006v2.988c0 .372.098.718.27 1.015z"/>
                <ellipse cx="60" cy="81.5" fill="#FFF" stroke-width="3" rx="14" ry="2.5"/>
                <path fill="#FFF" stroke-width="3" d="M46.27 81.009c-.177.159-.27.323-.27.491 0 1.38 6.268 2.5 14 2.5s14-1.12 14-2.5c0-.17-.094-.334-.273-.494A2 2 0 0 0 74 79.994v-2.988c0-1.12-.892-2.006-1.991-2.006H47.99A2.004 2.004 0 0 0 46 77.006v2.988c0 .372.098.718.27 1.015z"/>
                <ellipse cx="60" cy="75.5" fill="#FFF" stroke-width="3" rx="14" ry="2.5"/>
                <path fill="#FFF" stroke-width="3" d="M46.27 75.009c-.177.159-.27.323-.27.491 0 1.38 6.268 2.5 14 2.5s14-1.12 14-2.5c0-.17-.094-.334-.273-.494A2 2 0 0 0 74 73.994v-2.988c0-1.12-.892-2.006-1.991-2.006H47.99A2.004 2.004 0 0 0 46 71.006v2.988c0 .372.098.718.27 1.015z"/>
                <ellipse cx="60" cy="69.5" fill="#FFF" stroke-width="3" rx="14" ry="2.5"/>
                <path fill="#FFF" stroke-width="3" d="M74.27 130.009c-.177.159-.27.323-.27.491 0 1.38 6.268 2.5 14 2.5s14-1.12 14-2.5c0-.17-.094-.334-.273-.494a2 2 0 0 0 .273-1.012v-2.988c0-1.12-.892-2.006-1.991-2.006H75.99A2.004 2.004 0 0 0 74 126.006v2.988c0 .372.098.718.27 1.015z"/>
                <ellipse cx="88" cy="124.5" fill="#FFF" stroke-width="3" rx="14" ry="2.5"/>
                <path fill="#FFF" stroke-width="3" d="M74.27 125.009c-.177.159-.27.323-.27.491 0 1.38 6.268 2.5 14 2.5s14-1.12 14-2.5c0-.17-.094-.334-.273-.494a2 2 0 0 0 .273-1.012v-2.988c0-1.12-.892-2.006-1.991-2.006H75.99A2.004 2.004 0 0 0 74 121.006v2.988c0 .372.098.718.27 1.015z"/>
                <ellipse cx="88" cy="119.5" fill="#FFF" stroke-width="3" rx="14" ry="2.5"/>
                <path fill="#FFF" stroke-width="3" d="M74.27 119.009c-.177.159-.27.323-.27.491 0 1.38 6.268 2.5 14 2.5s14-1.12 14-2.5c0-.17-.094-.334-.273-.494a2 2 0 0 0 .273-1.012v-2.988c0-1.12-.892-2.006-1.991-2.006H75.99A2.004 2.004 0 0 0 74 115.006v2.988c0 .372.098.718.27 1.015z"/>
                <ellipse cx="88" cy="113.5" fill="#FFF" stroke-width="3" rx="14" ry="2.5"/>
                <path fill="#FFF" stroke-width="3" d="M74.27 112.009c-.177.159-.27.323-.27.491 0 1.38 6.268 2.5 14 2.5s14-1.12 14-2.5c0-.17-.094-.334-.273-.494a2 2 0 0 0 .273-1.012v-2.988c0-1.12-.892-2.006-1.991-2.006H75.99A2.004 2.004 0 0 0 74 108.006v2.988c0 .372.098.718.27 1.015z"/>
                <ellipse cx="88" cy="106.5" fill="#FFF" stroke-width="3" rx="14" ry="2.5"/>
                <path fill="#FFF" stroke-width="3" d="M74.27 106.009c-.177.159-.27.323-.27.491 0 1.38 6.268 2.5 14 2.5s14-1.12 14-2.5c0-.17-.094-.334-.273-.494a2 2 0 0 0 .273-1.012v-2.988c0-1.12-.892-2.006-1.991-2.006H75.99A2.004 2.004 0 0 0 74 102.006v2.988c0 .372.098.718.27 1.015z"/>
                <ellipse cx="88" cy="100.5" fill="#FFF" stroke-width="3" rx="14" ry="2.5"/>
                <path fill="#FFF" stroke-width="3" d="M74.27 100.009c-.177.159-.27.323-.27.491 0 1.38 6.268 2.5 14 2.5s14-1.12 14-2.5c0-.17-.094-.334-.273-.494a2 2 0 0 0 .273-1.012v-2.988c0-1.12-.892-2.006-1.991-2.006H75.99A2.004 2.004 0 0 0 74 96.006v2.988c0 .372.098.718.27 1.015z"/>
                <ellipse cx="88" cy="94.5" fill="#FFF" stroke-width="3" rx="14" ry="2.5"/>
                <path fill="#FFF" stroke-width="3" d="M20.258 139.982c-.169.167-.258.34-.258.518 0 1.38 5.373 2.5 12 2.5s12-1.12 12-2.5c0-.177-.089-.35-.257-.518.163-.29.257-.624.257-.98v-2.004c0-1.1-.898-1.998-2.005-1.998h-19.99A2.001 2.001 0 0 0 20 136.998v2.004c0 .356.094.69.258.98z"/>
                <ellipse cx="32" cy="136" fill="#FFF" stroke-width="3" rx="12" ry="2"/>
                <use fill="#FFF" stroke-width="8" mask="url(#n)" transform="rotate(-52 458.36 109.228)" xlink:href="#c"/>
                <use fill="#FFF" stroke-width="8" mask="url(#o)" transform="rotate(-52 477.962 124.603)" xlink:href="#d"/>
                <use fill="#FFF" stroke-width="8" mask="url(#p)" transform="rotate(-54 439.85 94.664)" xlink:href="#e"/>
                <use fill="#FFF" stroke-width="8" mask="url(#q)" transform="rotate(-52 421.931 79.693)" xlink:href="#f"/>
                <use fill="#FFF" stroke-width="8" mask="url(#r)" transform="rotate(-52 434.964 62.762)" xlink:href="#g"/>
                <use fill="#FFF" stroke-width="8" mask="url(#s)" transform="rotate(-52 407.964 97.762)" xlink:href="#h"/>
                <use fill="#FFF" stroke-width="8" mask="url(#t)" xlink:href="#i"/>
                <use fill="#FFF" stroke-width="8" mask="url(#u)" xlink:href="#j"/>
                <ellipse cx="418" cy="10" fill="#B3E1FF" rx="3" ry="3"/>
                <ellipse cx="29" cy="10" fill="#B3E1FF" rx="3" ry="3"/>
            </g>
            <g transform="translate(91)">
                <use fill="#000" filter="url(#v)" xlink:href="#w"/>
                <use fill="url(#x)" xlink:href="#w"/>
                <use fill="#000" filter="url(#y)" xlink:href="#w"/>
                <use stroke="#DDD" stroke-width="2" mask="url(#z)" xlink:href="#k"/>
                <g>
                    <use fill="#000" filter="url(#A)" xlink:href="#B"/>
                    <use fill="#F6F6F6" xlink:href="#B"/>
                    <use fill="#000" filter="url(#C)" xlink:href="#B"/>
                </g>
            </g>
            <g transform="translate(171 28)">
                <path fill="#8BD9FF" d="M35 23.777c0-.548.441-.992.995-.992H129.3V1h8.695A9.002 9.002 0 0 1 147 10.006v76.001c0 3.862-3.142 6.993-7.006 6.993H36.992c-1.1 0-1.992-.888-1.992-2.007V23.777z"/>
                <path fill="#23B4FB" d="M52.742 34a1.995 1.995 0 0 0-1.997 2.004v1.677a2.006 2.006 0 0 1-2.01 2.004H47.01c-1.11 0-2.009.892-2.009 2v29.362c0 1.104.898 2 2.01 2h1.725c1.11 0 2.01.904 2.01 2v1.956c0 1.104.898 1.998 1.997 1.997l73.655-.1a1.997 1.997 0 0 0 1.998-1.996v-1.712c0-1.101.9-1.993 1.992-1.993h1.62c1.101 0 1.993-.902 1.993-2.01V40.171a2 2 0 0 0-2.002-2.01h-1.674a1.966 1.966 0 0 1-1.967-2.007l.002-.147A1.964 1.964 0 0 0 126.397 34H52.742z"/>
                <ellipse cx="91" cy="56" fill="#FFE174" rx="14" ry="14"/>
                <use fill="#000" filter="url(#D)" xlink:href="#E"/>
                <use fill="#04A5F4" xlink:href="#E"/>
                <path fill="#8BD9FF" d="M10 40.01A2.998 2.998 0 0 1 12.996 37h26.008A3.004 3.004 0 0 1 42 40.01v.98A2.998 2.998 0 0 1 39.004 44H12.996A3.004 3.004 0 0 1 10 40.99v-.98zM29 25.5a2.5 2.5 0 0 1 2.498-2.5h27.004C59.882 23 61 24.11 61 25.5a2.5 2.5 0 0 1-2.498 2.5H31.498A2.493 2.493 0 0 1 29 25.5zm-10 .51A3.002 3.002 0 0 1 22.002 23h1.996A3.007 3.007 0 0 1 27 26.01v.98A3.002 3.002 0 0 1 23.998 30h-1.996A3.007 3.007 0 0 1 19 26.99v-.98zm-19 14A3.002 3.002 0 0 1 3.002 37h1.996A3.007 3.007 0 0 1 8 40.01v.98A3.002 3.002 0 0 1 4.998 44H3.002A3.007 3.007 0 0 1 0 40.99v-.98zm15 49A3.002 3.002 0 0 1 18.002 86h1.996A3.007 3.007 0 0 1 23 89.01v.98A3.002 3.002 0 0 1 19.998 93h-1.996A3.007 3.007 0 0 1 15 89.99v-.98zm0-24A3.01 3.01 0 0 1 18.006 62h4.988A3.01 3.01 0 0 1 26 65.01v.98A3.01 3.01 0 0 1 22.994 69h-4.988A3.01 3.01 0 0 1 15 65.99v-.98zm-9 0A3.007 3.007 0 0 1 9 62c1.657 0 3 1.35 3 3.01v.98A3.007 3.007 0 0 1 9 69c-1.657 0-3-1.35-3-3.01v-.98zm22 24A3.005 3.005 0 0 1 31 86h9c1.657 0 3 1.35 3 3.01v.98A3.005 3.005 0 0 1 40 93h-9c-1.657 0-3-1.35-3-3.01v-.98z"/>
            </g>
        </g>
    </g>
</svg>
